<svg xmlns="http://www.w3.org/2000/svg" xmlns:xlink="http://www.w3.org/1999/xlink" width="59.373" height="60.007" viewBox="0 0 59.373 60.007">
  <defs>
    <filter id="Path_22830" x="5.667" y="5.324" width="47.169" height="54.006" filterUnits="userSpaceOnUse">
      <feOffset dy="3" input="SourceAlpha"/>
      <feGaussianBlur stdDeviation="3" result="blur"/>
      <feFlood flood-opacity="0.161"/>
      <feComposite operator="in" in2="blur"/>
      <feComposite in="SourceGraphic"/>
    </filter>
  </defs>
  <g id="favicon_black" data-name="favicon black" transform="translate(-273.999 -0.001)">
    <g id="Group_36279" data-name="Group 36279" transform="translate(274)">
      <path id="Union_12" data-name="Union 12" d="M26.917,59.932a5.806,5.806,0,0,1-.645-.069c-.216-.03-.423-.072-.63-.12a4.157,4.157,0,0,1-1.179-.468c-.258-.147-.45-.258-.585-.354a.55.55,0,0,1-.228-.261c-.045-.159.129-.312.474-.609a3.213,3.213,0,0,0-.606-.48,3.4,3.4,0,0,0-.36-.189c-.126-.06-.261-.1-.4-.156-.426-.15-.723-.378-.621-.627a1.071,1.071,0,0,1,.645-.66.79.79,0,0,1,.51.069,1.263,1.263,0,0,1,.5.4,1.648,1.648,0,0,0,.381.375.878.878,0,0,0,.333.147l.144.015a.858.858,0,0,0,.6-.258c-.162-.066-.393-.123-.555-.2.252-.03.492-.069.732-.108l.186-.027a1.276,1.276,0,0,1,.117-.069,1.309,1.309,0,0,1,.258-.1,1.811,1.811,0,0,1,.312-.066,4.52,4.52,0,0,0,.714-.213c-.03-.069-.057-.135-.078-.195a.117.117,0,0,0-.045.006,3.141,3.141,0,0,1-.834-.024c.285-.1.51-.186.777-.285-.009-.045-.015-.084-.021-.12-.135-.03-.279-.054-.42-.075-.1.129-.228.249-.336.372a2.165,2.165,0,0,1-.732-.564,1.769,1.769,0,0,1-.363-.147.337.337,0,0,1-.285.315,1.075,1.075,0,0,1-.267,0c.1.087.207.174.315.255-.084.021-.168.048-.255.066l-.459-.348.081-.018c-.09-.015-.186-.036-.291-.057-.072-.018-.147-.033-.228-.054s-.165-.045-.255-.072a.96.96,0,0,1,.354-.213.825.825,0,0,1,.126-.036c-.147-.027-.291-.051-.438-.081l-.189-.042a.386.386,0,0,1-.414-.093l-.2-.045a1.089,1.089,0,0,0-.192-.294.536.536,0,0,0-.294-.144A.146.146,0,0,0,22.033,54a.118.118,0,0,0,.03.024c-.051.036-.108.108-.147.1a1.035,1.035,0,0,1-.255-.138,1.686,1.686,0,0,0-.171.006c-.129.006-.279.018-.453.027l-.585.021.372.228c.06.036.12.072.18.111l.183.1c.252.135.5.276.783.426a1.341,1.341,0,0,1-.513.09c-.2-.045-.408-.093-.612-.141s-.4-.123-.6-.183l-.6-.183c-.2-.069-.393-.138-.591-.21-.162-.057-.348-.129-.519-.189a1.5,1.5,0,0,0-.447-.117,2.154,2.154,0,0,1-.837-.2,6.243,6.243,0,0,1-.645-.39c-.357.1-.69.186-1.011.252-.2-.126-.378-.258-.549-.375-.087-.06-.171-.114-.255-.165a2.547,2.547,0,0,0-.246-.138,4.937,4.937,0,0,1-.6-.348c-.09-.06-.177-.123-.258-.186a2.919,2.919,0,0,1-.222-.207,3.444,3.444,0,0,1-.624-.849,4.551,4.551,0,0,0-1.293-1.4c-.528-.444-1.038-.912-1.533-1.395a1.07,1.07,0,0,1-.21.252c-.042-.186-.075-.33-.108-.477-.009-.039-.018-.075-.027-.114-.435-.435-.855-.885-1.266-1.344-.174-.207-.354-.411-.534-.612L7.6,45.97c-.087-.108-.174-.213-.264-.321-.174-.213-.351-.426-.534-.645s-.342-.459-.516-.693c0-.009.018-.138.033-.252a1.635,1.635,0,0,0-.156-.243,6.11,6.11,0,0,1-1.116-1.509c-.2-.351-.372-.726-.543-1.1a.632.632,0,0,0-.261.4.571.571,0,0,1-.27.408c-.048-.219-.081-.444-.117-.663s-.066-.432-.1-.642c-.105-.093-.207-.18-.309-.267s-.192-.183-.288-.276a.719.719,0,0,1-.2-.888A1,1,0,0,0,2.9,38.223a2.33,2.33,0,0,1-.165-.606c-.018-.138-.03-.276-.045-.411a.545.545,0,0,0-.231.03.3.3,0,0,1-.366-.018c.009-.06.015-.12.021-.18s.021-.123.03-.183c.021-.123.042-.246.06-.366a4.114,4.114,0,0,1,.159-.663c.147-.411.429-.111.669.234.111.159.222.33.327.5l.081.126.087.126.162.234a.011.011,0,0,1,.009,0,.139.139,0,0,1,0,.015L3.68,37.04c.03.09.057.171.087.243l.054.036a1.885,1.885,0,0,1,.171.093c-.018-.114-.033-.228-.045-.345A.3.3,0,0,1,3.7,37.05a1.223,1.223,0,0,1-.06-.414.152.152,0,0,1,.1-.138.618.618,0,0,1,.168-.009.6.6,0,0,1,.09-.3,1.28,1.28,0,0,1-.066-.957c.174.276.351.522.5.8A1.651,1.651,0,0,0,4.687,36c-.018-.069-.036-.141-.057-.213l.15.081a.629.629,0,0,1-.045-.09c-.006-.018-.012-.033-.018-.048-.156-.1-.306-.219-.462-.33l.045-.2c.087.054.174.108.261.159a2.9,2.9,0,0,0-.27-.456,1.144,1.144,0,0,0-.627-.462c-.159.156-.315.318-.483.492-.174-.174-.333-.333-.513-.531.036-.159.072-.306.111-.447a1.551,1.551,0,0,0,.1-.843c-.054-.18-.225-.306-.552-.5l.126-.756c.021-.123.048-.246.075-.366s.051-.24.078-.357c-.156-.177-.3-.351-.453-.531s-.3-.363-.45-.558c.15-.348.258-.6.4-.921a2.8,2.8,0,0,0,.615.75,1.72,1.72,0,0,1,.282.372,1.583,1.583,0,0,1,.195.55c.018.1.36.171.522.1.228-.093.432-.111.474.255a.544.544,0,0,1-.093.423.48.48,0,0,1-.312.162,5.787,5.787,0,0,0-.6.129c.033.438.063.816.09,1.17.006.057.012.117.018.174.168.078.339.192.513.258v-.459c0-.075.012-.15.015-.222l.153-.072c.066.108.126.216.2.33s.141.21.222.333c.006,0,.012-.009.018-.012a.072.072,0,0,1,.054-.021,23.493,23.493,0,0,1-.213-3.132.922.922,0,0,1,.021-1.1,23.581,23.581,0,0,1,.531-4.077,1.03,1.03,0,0,1-.075-.084,4.532,4.532,0,0,0-.366.507c-.036.054-.12.048-.189.075.1-.39.162-.681.237-.9q.045-.126.09-.225c-.018-.084-.036-.174-.048-.27.1-.09.219-.195.414-.366-.057-.156-.111-.312-.165-.471a.3.3,0,0,1-.031-.1c-.054-.168-.1-.336-.153-.5-.066.045-.135.09-.2.135-.285-.273-.024-.564.162-.858.09-.141.18-.285.294-.459a1.9,1.9,0,0,0-.2-.393c-.006-.015-.015-.03-.024-.051-.15.021-.285.039-.423.06.186-.4.327-.723.5-1.032a1.308,1.308,0,0,1,.069-.132,2.283,2.283,0,0,1,.009-.78c.069-.249.174-.489.282-.783a.755.755,0,0,1,.678.621,1.633,1.633,0,0,1-.027.543,3.585,3.585,0,0,1-.1.378,2.641,2.641,0,0,1,.135.69,4.794,4.794,0,0,0,.048.54.886.886,0,0,0,.1.312.6.6,0,0,0,.039.06q.306-.791.666-1.56l-.339.132-.012-.18c.144-.075.282-.147.432-.216v.093a23.759,23.759,0,0,1,1.728-3.027.214.214,0,0,1-.282-.045c-.012-.009-.072.033-.141.093a1.742,1.742,0,0,0-.189.21,1.823,1.823,0,0,1-.327.357c.027.033.057.072.084.111-.216.021-.327.033-.381-.039a.347.347,0,0,1-.045-.18v-.1a.48.48,0,0,0-.012-.063c.006-.006.009-.012.015-.018a1.161,1.161,0,0,1,.01-.18c.021.033.045.063.063.093.078-.093.15-.183.219-.276.051-.063.1-.126.144-.192s.084-.12.123-.18a3.01,3.01,0,0,1,.066-.4.681.681,0,0,1,.087-.228.28.28,0,0,1,.12-.093,1.137,1.137,0,0,0,.009-.141.29.29,0,0,1-.153.018c-.051-.024-.072-.1-.129-.192l.354-.111-.012.1c.03-.057.072-.12.117-.189.1-.153.231-.333.345-.522.132.192.207.306.318.471.042-.063.084-.126.123-.189-.108-.066-.231-.138-.4-.237a1.358,1.358,0,0,0,.36-.2A.493.493,0,0,0,8.9,14.36c.012-.033.024-.066.033-.1a.237.237,0,0,0-.012-.042H8.95a.875.875,0,0,1,.126-.3c.1-.126.207-.258.312-.384-.024-.186-.048-.369-.069-.561a3.583,3.583,0,0,1,.486.09c.021-.024.045-.048.066-.072.138-.15.27-.3.417-.441s.294-.273.447-.4c.111-.093.216-.189.321-.285a1.692,1.692,0,0,1,.153-.141c.053-.041.1-.093.15-.138.129-.126.255-.255.373-.384l-.147.072-.054-.057c-.174.168-.426.375-.489.348-.039-.018-.075-.03-.114-.045-.072.1-.138.222-.216.336-.129-.012-.291-.024-.576-.045A20.161,20.161,0,0,0,8.175,14a2.9,2.9,0,0,1-.651.687,1.587,1.587,0,0,1-.315.174,1.944,1.944,0,0,1-.318.1,4.9,4.9,0,0,0-.723.291c.132-.261.252-.513.372-.756s.255-.468.378-.7c.06-.114.12-.231.183-.345l.087-.174.1-.171c.129-.225.261-.453.408-.672.072-.108.147-.219.231-.324s.177-.2.273-.3h0c-.129.045-.255.087-.384.129-.2-.342-.354-.627-.51-.915.36-.375.54-.228.72-.075a.515.515,0,0,0,.771.03c-.054-.279-.1-.519-.138-.756.129-.1.246-.189.36-.264s.219-.135.318-.189a1.722,1.722,0,0,1,.513-.192.743.743,0,0,1,.408.045q.09-.1.189-.2c-.012-.036-.027-.075-.042-.117.1-.042.192-.084.285-.123a10.837,10.837,0,0,1,2.265-1.668,1.273,1.273,0,0,0,.261-.213l-.1-.024.1-.162c-.171.108-.336.213-.483.291a1.32,1.32,0,0,1-.351.141.3.3,0,0,1-.138-.009c-.093.177-.183.348-.276.528-.357-.1-.648-.168-1.008-.255A1.127,1.127,0,0,1,11.718,7a5.892,5.892,0,0,0,1.032-.345c-.078.129-.15.249-.216.366a4.69,4.69,0,0,1,2.6-1.26,10.294,10.294,0,0,1,.942-.747c.351-.228.717-.438,1.092-.633.06-.033.12-.072.228-.132.324.126.651.264.867.354.153-.06.3-.123.45-.177s.312-.12.459-.189a2.736,2.736,0,0,0,.78-.522,2.169,2.169,0,0,1,1.668-.483.766.766,0,0,0,.348.093.036.036,0,0,1,.012-.009,3.311,3.311,0,0,1,.708-.438,2.445,2.445,0,0,1,.861-.18.609.609,0,0,1,.525.174l.042-.01.492-.09.489-.093c.162-.03.327-.066.492-.084l.432-.06a1.353,1.353,0,0,1,.165-.192l-.066-.1c.078-.018.156-.036.231-.051a1.061,1.061,0,0,0,.4-.561c-.078-.039-.162-.081-.258-.132h-.006c-.138.015-.273.039-.4.063a9.518,9.518,0,0,1-1.137.162,5.093,5.093,0,0,1-.612.012,3.229,3.229,0,0,1-.327-.021L23.845,1.7c-.057,0-.114-.009-.174-.015.066-.021.132-.045.2-.066s.132-.036.195-.057c.132-.036.264-.075.393-.114.261-.075.519-.147.774-.219C25.75,1.1,26.262.989,26.782.9c.033,0,.066-.009.1-.012l.264-.207c.231.042.462.081.69.12h.128l.2-.006h.2c.267.009.537.024.813.051a1.2,1.2,0,0,1,.147.015c.153-.093.3-.18.444-.264A7.148,7.148,0,0,1,30.5.242,2.964,2.964,0,0,1,32.335.077a3.2,3.2,0,0,1,.309.084,2.313,2.313,0,0,1,.3.123,12.566,12.566,0,0,0,1.245.435.807.807,0,0,0-.1.2.978.978,0,0,1-.744.747,2.427,2.427,0,0,1,.381.291c.2.033.387.069.579.1a.484.484,0,0,1,.147-.108.752.752,0,0,1,.324-.066.984.984,0,0,1,.663.264.018.018,0,0,1,0-.012c.057-.018.114-.039.177-.057l.189-.051c.129-.036.264-.072.4-.108.06.039.12.078.177.117.072.015.141.027.2.042.144.03.264.069.372.1a3.131,3.131,0,0,1,.372.129c.093-.078.2-.156.213-.252-.1-.039-.2-.081-.429-.177.267-.156.486-.279.654-.372.183.039.345.084.5.12.078.018.15.033.225.048a1.77,1.77,0,0,0,.21.039,5.014,5.014,0,0,0,.786-.027c.045.174.072.282.1.411.153-.027.252-.036.354-.048h0l-.009-.015.021-.012-.009.027.219.327.018-.006v.006h-.012l-.327.21.411.081V2.658h.009v.009h-.009c.042.129.087.258.129.393.054.024.1.045.156.066.15.063.294.123.435.189l.849.4c-.072.1-.2.168-.2.291a.671.671,0,0,0,.048.3.947.947,0,0,0,.2.285,3.529,3.529,0,0,0,.867.621c.06.036.123.069.183.108l.177.117c.117.081.234.162.348.243l.345.249c.111.084.228.165.336.255.444.354.8.756,1.179.5a.169.169,0,0,1,.126-.006c-.177-.2-.33-.375-.507-.579.63.207.66.219.585.6a3.877,3.877,0,0,1,.426.174c.042-.1.126-.18.348-.171.03.159.057.276.063.363.09.042.18.081.264.114a.062.062,0,0,0,.006.012c.039.012.081.027.123.042a.928.928,0,0,1,.414.417.249.249,0,0,1-.006.174l.09.027c-.063.072-.108.129-.147.177l.021.03a3.741,3.741,0,0,0,.357.429c.081.093.171.186.267.282a1.374,1.374,0,0,0-.033-.222c-.084-.375-.186-.759-.3-1.161A1.973,1.973,0,0,1,47,7.1a3.343,3.343,0,0,1-.489-.564,7.382,7.382,0,0,1-.474-.825A2.181,2.181,0,0,1,47.1,5.7a1.069,1.069,0,0,1,.357.21,1.227,1.227,0,0,1,.168.168c.057.066.111.141.171.225a1.681,1.681,0,0,1,.234.477,3.2,3.2,0,0,1,.07.32c.087,0,.18-.006.288-.006a1.844,1.844,0,0,0-.255.237c.015.084.027.168.039.252-.057-.006-.111-.01-.168-.018a.423.423,0,0,0-.018.087.535.535,0,0,0,.069.318,1.133,1.133,0,0,0,.123.177,1.755,1.755,0,0,0,.177.2c.075.078.033.264.042.4.249.009.348.144.27.393l-.258-.387c-.036.117-.069.234-.093.321.084.078.168.153.246.228l.063.057a.3.3,0,0,1,.129-.156,3.091,3.091,0,0,1,.924.9,5.1,5.1,0,0,1,.48,1.065c.048.078.1.156.144.231.117.189.222.387.33.579.045.078.057.153.1.234a1.681,1.681,0,0,0,.57.6,1.631,1.631,0,0,1,.555.717c.135.075.273.153.411.234.072.234.192.582.3,1.011.081.123.159.246.225.369.012.024.054.039.246.165-.063-.162-.12-.33-.189-.5s-.144-.336-.213-.507l.225.018c.072.072.141.144.21.216s.144.147.21.225c.141.159.285.321.438.5-.147-.327-.315-.675-.489-1a3.961,3.961,0,0,1-.375-.966,1.235,1.235,0,0,1,.7.873c.048.135.1.27.147.4s.1.27.162.4c.111.267.237.525.372.783.114.237.231.471.357.7.168-.186.318-.36.462-.531a2.787,2.787,0,0,1,.555.537,2.249,2.249,0,0,1,.192.3,1.545,1.545,0,0,1,.075.153,1.481,1.481,0,0,1,.054.159A1.75,1.75,0,0,1,56,17.7c.033.054.069.108.1.168a1.7,1.7,0,0,1,.366-.141c.138-.024.288-.018.366.279.06.225.138.318.228.345a.408.408,0,0,0,.285-.063l.655-.34c-.129.351-.213.561-.294.768.267-.006.543-.015.954-.018-.1.285-.192.522-.276.738s-.174.417-.261.621c.117.429.12.432-.114.924a1.94,1.94,0,0,1,.249-.024,2.443,2.443,0,0,1,.288.051,3.928,3.928,0,0,0-.687.549,1.52,1.52,0,0,0-.246.585c.441.411.681.426.813.018.183-.564.183-.573.72-.111-.1.1-.2.186-.3.273a2.885,2.885,0,0,1-.288.231c-.225.162-.408.33-.186.921a3.325,3.325,0,0,1,.333-.441.735.735,0,0,1,.465-.2,2.808,2.808,0,0,0-.2.906,2.9,2.9,0,0,0,.093.981.692.692,0,0,1-.126.423,1.107,1.107,0,0,1-.627.924,2.814,2.814,0,0,1-.237-1.116c0-.054.006-.108.01-.162-.069.093-.138.183-.2.27-.039.051-.078.1-.114.15.009.1.027.231.045.414-.009-.009-.021-.015-.03-.024l.054.15.1.279a1.835,1.835,0,0,0-.21.852,2.43,2.43,0,0,0,0,.264c0,.093,0,.186.006.282.009.189.027.387.057.594.237.111.48.225.819.39-.057.174-.114.324-.162.45a1.9,1.9,0,0,1-.138.318c-.132.225-.327.3-.414.588-.012.051-.03.111-.045.177a2.3,2.3,0,0,0,.051.285c-.039-.012-.075-.021-.111-.03-.015.072-.033.147-.048.222a1.608,1.608,0,0,0-.036.561c.012.048.024.093.033.141.093-.027.186-.057.288-.087a1.423,1.423,0,0,1-.1.492.784.784,0,0,1-.114.192c0,.189,0,.378-.018.57-.015.219-.039.438-.057.657s-.06.435-.075.654a2.142,2.142,0,0,1-.06.3h.012l-.015.015a.435.435,0,0,1-.087.2.806.806,0,0,0-.372.54,1.258,1.258,0,0,1-.021.369,1.717,1.717,0,0,1,.093.4.6.6,0,0,1-.024.186c-.009.042-.021.09-.033.147s-.033.12-.051.2c-.084-.1-.159-.177-.216-.243-.072.216-.135.45-.2.684a.011.011,0,0,0,0,.009,1.485,1.485,0,0,1,.072.423,1.154,1.154,0,0,1-.06.369,1.492,1.492,0,0,1-.453.633,3.52,3.52,0,0,0-.33.336c-.039.045-.075.09-.111.138-.066.207-.144.411-.219.615l-.282.747c-.207.492-.408.984-.615,1.473-.144.327-.264.666-.387,1.005-.06.171-.132.333-.2.5-.062.141-.129.279-.2.417h.072l-.114.282q-.043-.019-.087-.033l-.1.189c-.069.12-.144.24-.216.36-.144.24-.294.477-.441.711-.072.12-.156.231-.234.345l-.243.342-.24.339c-.081.114-.159.228-.249.336-.192.249-.414.456-.795.864.354-.7.6-1.17.813-1.668-.156.189-.309.387-.654.759.069-.135.135-.258.2-.372s.1-.222.153-.321c.093-.2.171-.372.249-.543l-.057-.006-.441.651c-.15.213-.309.42-.465.63L51,45.91c-.21.264-.423.525-.646.78-.009.015-.018.033-.027.051a.7.7,0,0,1,.75.162,1.889,1.889,0,0,1,.3.921.362.362,0,0,0,.015.054c-.126.108-.249.219-.378.321s-.27.207-.4.3a11.187,11.187,0,0,1-.987.609c.195.2.324.333.477.492-.195.081-.381.162-.573.24-.093.039-.189.082-.285.12s-.2.075-.306.111c.036-.144.078-.282.108-.426s.06-.282.078-.42c.018-.114,0-.267-.072-.312a.8.8,0,0,1-.36-.474c-.018.015-.033.03-.051.048-.09.129-.18.264-.264.4-.012.108-.027.231-.051.375l-.162-.036c-.21.345-.414.69-.63,1.02a6.364,6.364,0,0,1-.726.921c-.135.144-.273.288-.417.432s-.3.27-.45.4-.309.264-.465.393l-.114.1-.123.093-.24.186c-.159.126-.318.252-.48.375l-.234.189c-.081.063-.162.123-.24.183-.249.192-.525.369-.8.54-.066.036-.132.075-.2.111.048.249.093.513.147.831a4.454,4.454,0,0,1-.867.1.947.947,0,0,1-.573-.219c-.129.06-.258.12-.387.174-.012.006-.027.009-.042.015a1.117,1.117,0,0,1-.156.276c-.126.171-.258.345-.4.525s-.306.348-.474.546a1.7,1.7,0,0,0-.684-.021c-.111.021-.225.045-.339.075a2.912,2.912,0,0,0-.339.108c-.228.081-.456.18-.684.279a6.379,6.379,0,0,1-.7.237,1.223,1.223,0,0,0-.8.579,2.9,2.9,0,0,0-.24.8,2.523,2.523,0,0,1-.165.873,1.31,1.31,0,0,1-.822.522,1.158,1.158,0,0,1-.8-.378A.634.634,0,0,1,34.6,58.7c-.033.009-.066.015-.1.024-.1.027-.2.051-.294.075s-.192.042-.285.06l-.564.117a5.628,5.628,0,0,0-.618-.438.321.321,0,0,1-.147-.243.49.49,0,0,1,.213-.324c-.225-.093-.45-.2-.771-.357-.153.03-.315.06-.492.1-.06.009-.117.021-.177.033a.969.969,0,0,1,.036.585,1.451,1.451,0,0,1-.4.636c.267.111.108.222-.48.417a5.017,5.017,0,0,1-.633.387,1.722,1.722,0,0,1-.489.156,3.856,3.856,0,0,1-.561.066c-.142.01-.284.014-.427.014C27.924,60,27.42,59.95,26.917,59.932Zm1.6-1.9c-.171.033-.327.048-.471.063q-.139.018-.27.027c-.012.1-.021.219-.042.363.132.012.261.027.384.039.057.006.114.012.168.015.153,0,.3-.006.456-.018.219-.012.435-.024.651-.042.1-.009.21-.018.312-.03.036-.012.075-.024.111-.039a1.612,1.612,0,0,0,.531-.342,1.388,1.388,0,0,1,.291-.21c-.3.042-.609.084-.924.129-.216-.153-.153-.48-.948-.354a1.459,1.459,0,0,1-.513-.141c.092.182.175.359.269.539Zm7.635-.69a1.3,1.3,0,0,1-.228.057.846.846,0,0,0-.588.279.594.594,0,0,1-.354.276c-.138.039-.282.075-.42.108-.006.012-.015.021-.018.021-.033,0-.066.006-.1.006l-.192.045-.183.039-.183.033-.372.069c.165.012.33.024.5.039s.342.015.531.023c.114,0,.237.01.363.012a2.762,2.762,0,0,1,.264-.192,13.672,13.672,0,0,0,1.1-.825Zm-8.208.09.249.033-.213-.123q-.018.044-.031.09Zm1.7-.336c.09.348.771.429,1.266.138a2.283,2.283,0,0,0,.336-.249,2.338,2.338,0,0,0,.195-.192l.036-.1a.366.366,0,0,0,.06,0c.153-.18.285-.363.423-.537.084-.108-.048-.237-.1-.411a6.2,6.2,0,0,0-.918.216,3.8,3.8,0,0,1-1.293.339,1.964,1.964,0,0,1-.957-.5l.636-.237a2.53,2.53,0,0,0-.645-.1.441.441,0,0,1-.072.327c-.249.306-.675.3-1.32.1.09.129.159.246.222.351.06.006.126.015.189.024.084.222.129.336.282.363a.969.969,0,0,0,.327-.015c.15-.027.345-.078.6-.144.489.155.673.358.742.632Zm-1.362-.078c.237.114.432.2.627.291.1-.218.026-.334-.256-.334a2.048,2.048,0,0,0-.362.042Zm4.875-.132c.09,0,.18.009.282.012-.066-.048-.126-.09-.174-.126-.027.033-.065.075-.1.114Zm3.45-.582c-.138.03-.282.06-.429.1a5.753,5.753,0,0,0-.954.357c.294-.06.456-.087.615-.123.177-.039.354-.084.648-.156a.8.8,0,0,0,.2-.2Zm-3.9-.135a.556.556,0,0,1,.066-.006.332.332,0,0,1-.039-.054.14.14,0,0,1-.018.06ZM40.4,54.97c-.222.138-.435.267-.645.4a1.351,1.351,0,0,0,.681-.417l.006-.006a.262.262,0,0,1-.033.023Zm-15.675-.3a.54.54,0,0,1-.075-.147l-.344-.1c-.036.078-.075.156-.115.237h.121c.143,0,.283,0,.422.007Zm16.332-.138.018-.006L41.1,54.5a.252.252,0,0,0-.036.03ZM19.2,53.838c.129.072.255.15.393.213q.085.034.18.066c.063.021.126.033.189.048l.024-.1c-.063-.021-.126-.042-.192-.066l-.186-.069-.375-.144Zm.4-.294c.39.012.726-.027.546-.354a1.4,1.4,0,0,0-.224-.021c-.334,0-.322.19-.317.376Zm-3.117-.873c.306.123.612.24.921.357.15.06.312.108.468.159l.477.153a.772.772,0,0,0-.286-.34c-.087-.057-.207-.123-.375-.216l-.267-.156c-.063-.006-.124-.015-.189-.027a8.032,8.032,0,0,1-1.188-.243l-.09-.006a4.646,4.646,0,0,0,.535.319Zm26.8.033.069.123c.108-.072.219-.144.33-.219l-.282.036h0Zm1.326-.81h.009c.048-.045.1-.09.141-.135s.09-.1.135-.144h-.027a1.529,1.529,0,0,0-.253.279ZM11.6,49.029l.258.348a1.172,1.172,0,0,0,.2-.021c-.075-.114-.153-.228-.231-.342-.039-.057-.081-.114-.12-.171l-.111-.177H11.35Zm1.242-.33c.159.123.309.255.477.369L13.362,49c-.15-.108-.285-.234-.429-.351Zm-2.58-1.95.114.087.117.081.237.165c.156.108.312.216.468.327s.321.21.483.315l.495.309c-.075-.093-.15-.177-.225-.261-.216-.2-.426-.4-.636-.609a3.254,3.254,0,0,0-1.005-.573Zm-.327.921a.912.912,0,0,0,.243.246.6.6,0,0,0,.591.012c-.216-.135-.39-.246-.555-.351-.084-.051-.165-.1-.249-.156-.045-.027-.087-.054-.129-.084l-.132-.09a2.088,2.088,0,0,0,.235.423ZM7.761,44.007c.066.1.129.2.2.3l.21.288c.141.192.279.384.42.576s.3.372.444.558L9.261,46l.111.138.12.135c-.048-.213-.075-.432-.108-.648S9.321,45.2,9.291,45c-.006-.054-.015-.1-.021-.159-.255-.33-.5-.669-.744-1.014H8.487a1.4,1.4,0,0,0-.441.039,1.062,1.062,0,0,1-.363.027C7.707,43.926,7.734,43.965,7.761,44.007Zm1.923,1.617.126.126.135.123.27.24.024-.1-.291-.336-.2-.189Zm44.041-3.591-.153.27-.309.537c-.183.333-.393.651-.6.972l-.036.1.081.108c.216-.363.444-.72.639-1.1l.3-.558.15-.279.138-.288-.066-.039Zm-48.9-2.622c.075.12.15.237.228.339.234.336.495.525.747.387,0-.072-.006-.144-.012-.213.153-.09.3-.171.435-.255a.013.013,0,0,0,0-.009,1.687,1.687,0,0,1-.2-.186,2.017,2.017,0,0,1-.168-.243,3.6,3.6,0,0,1-.258-.552,11.081,11.081,0,0,0-.45-1.155,2.46,2.46,0,0,0,.078.729,1.3,1.3,0,0,1,.066.378c.012.039.027.075.039.114s.036.084.051.126a1.315,1.315,0,0,1-.1-.153.578.578,0,0,1-.171.33,1.205,1.205,0,0,0-.1.111v.018L5,39.168a1.287,1.287,0,0,0-.173.243Zm-.192-1.584c.093-.321.054-.384-.135-.711-.165.1-.324.21-.486.315.084.111.165.225.249.339a.648.648,0,0,0,.3-.243c.023.1.047.2.074.3ZM3.687,37.044Zm53.281-8.13c.018-.075.036-.147.051-.219-.012-.024-.027-.045-.039-.069l-.042-.078a2.113,2.113,0,0,1,.031.366Zm.747-.759c.012.027.024.057.033.084.006-.057.015-.111.021-.168a.961.961,0,0,1-.053.084Zm-1.107-1c-.018.048-.039.1-.06.147.039.09.078.177.114.264.054.123.1.246.156.363.03.084.06.168.093.249.057-.063.111-.123.168-.189a1.007,1.007,0,0,0-.315-.687,1.448,1.448,0,0,0,.165-.741V26.48a2.812,2.812,0,0,0-.321.67Zm-.2-2.286c.009.078.015.156.024.234.006.057.009.114.012.171l.024.018c.078.06.159.123.246.195a.381.381,0,0,0-.075.132c.087.117.18.231.272.345a3.455,3.455,0,0,0-.03-.354c-.024-.234-.045-.471-.048-.693-.03-.018-.06-.039-.09-.06-.06-.039-.117-.075-.174-.114a.508.508,0,0,0-.169.121Zm-.3-2,.036.2.066.408c.015.087.03.171.042.258a1.376,1.376,0,0,1,.285-.153.238.238,0,0,0,.039-.018.843.843,0,0,1,.09-.06.614.614,0,0,1,.162-.057c.069-.036.135-.072.2-.114.093-.057.249-.165.237-.237a1.511,1.511,0,0,0-.2-.447c-.012.174-.048.384-.1.69-.048-.18-.093-.336-.135-.474a.6.6,0,0,1-.3.192c-.12.018-.229-.06-.429-.21ZM4.644,22.616a.338.338,0,0,1,.231.12,1.768,1.768,0,0,1,.189.27c.057.093.117.2.2.342.123-.414.255-.822.4-1.227a.924.924,0,0,0-.4.117c-.024.012-.045.027-.069.039v.213c-.072-.036-.156-.063-.21-.093C4.869,22.467,4.755,22.542,4.644,22.616Zm51.833-.888c-.018.153-.033.3-.051.441l.216.072a1.618,1.618,0,0,1-.054-.258.721.721,0,0,1,.192-.555c.111.315.186.525.231.7.072-.225.144-.456.228-.747-.261-.063-.459-.108-.714-.165-.013.191-.033.36-.048.513Zm1.017-1.008c.162-.24.177-.486-.111-.87.047.4.08.633.11.871Zm-.339-.51c.039-.141.078-.282.12-.42s.06-.258.093-.384C56.986,19.719,57,19.722,57.155,20.21Zm.234-.837c.3.006.327-.288.3-.639a.5.5,0,0,0-.3.639ZM8.25,13.034a.25.25,0,0,0-.045.012c-.3.468-.507.792-.693,1.134l.114.033c.069-.075.138-.153.21-.231.036-.039.069-.078.1-.117a1.453,1.453,0,0,1,.111-.111l.474-.474c-.015-.1-.03-.2-.057-.36a.885.885,0,0,1-.214.114Zm.978,1.113.114.018.063-.009c.021-.033.045-.063.069-.1-.006-.03-.012-.063-.015-.093C9.384,14.024,9.309,14.084,9.228,14.147Zm-.357-2.34a.8.8,0,0,0-.333.168c-.066.066-.075.207-.108.315.117-.063.234-.123.381-.2a1.767,1.767,0,0,0,.061-.285ZM12.954,9.47l-.327.249c-.108.087-.213.177-.315.264-.207.18-.411.36-.615.543a2.808,2.808,0,0,0-.24.264.386.386,0,0,0,.06,0c.036,0,.066.057.087.123.1-.159.219-.33.354-.531.063.042.12.081.177.117-.027-.2.135-.354.519-.546.048-.024.1-.048.147-.069l.042-.018c.039-.123.081-.249.12-.369.006-.018.012-.033.018-.048ZM11.13,10.631l.018.033.018-.021-.021-.024Zm37.966-.1a.1.1,0,0,0,.033.012.824.824,0,0,0-.006-.123.789.789,0,0,0-.023.106Zm-.342-.333c.03-.033.063-.066.093-.1H48.7c.018.029.036.062.054.1ZM19.33,7.265l-.711.447c.171.09.363.192.459.246.345-.186.69-.39,1.074-.564.192-.09.387-.186.591-.282.051-.027.1-.051.156-.075s.1-.045.162-.069.1-.042.156-.066A.7.7,0,0,1,21,6.788c-.1-.012-.2-.021-.291-.024q-.288-.013-.477-.027C19.9,6.926,19.594,7.091,19.33,7.265Zm-5.758-.357-.051.078c.033-.033.072-.069.111-.108a.559.559,0,0,1-.06.03Zm24.289-4.3a.485.485,0,0,0-.117.03.806.806,0,0,1,.051.084c.084.027.168.051.249.078.1.033.2.057.3.087.039.012.075.024.114.039h.171a1.12,1.12,0,0,0-.187-.246.487.487,0,0,0-.255-.081h-.109a1.352,1.352,0,0,0-.217.013Zm-4.473-.036L33.6,2.8c.042-.006.081-.009.123-.012A.545.545,0,0,1,33.7,2.71c.075,0,.147,0,.222-.006a.507.507,0,0,0-.177-.129.429.429,0,0,0-.123-.015c-.074,0-.156.014-.231.016ZM30,2.606l.531.018.342.009c.117,0,.231.015.345.021.228.018.459.033.69.051l.344.027c.117.012.231.033.345.048-.084-.033-.192-.069-.318-.108s-.273-.066-.429-.1h0a1.007,1.007,0,0,1-.39.039.579.579,0,0,1-.39-.123A.26.26,0,0,1,31,2.4c-.069-.012-.135-.021-.2-.03l-.282-.036A2.043,2.043,0,0,1,30,2.606Zm7.575-.546c.093.03.195.06.4.126-.186-.16-.266-.229-.316-.229s-.059.037-.086.1ZM20.25,57.573a1.515,1.515,0,0,1-.942-.672.617.617,0,0,1,.192-.786c.15.036.306.078.462.117s.315.081.478.117c.543.117,1.059.549,1.059.855,0,.15-.189.288-.438.36a1.6,1.6,0,0,1-.438.061,1.259,1.259,0,0,1-.373-.052Zm-1.905-2.664.264.1-.15.645C18.063,55.191,18.132,55.03,18.345,54.909Zm-2.952.111c-.129-.087-.246-.18-.36-.27s-.228-.183-.336-.276a2.6,2.6,0,0,1-.621-.69c-.066-.123.1-.192.168-.285a5.912,5.912,0,0,1,.627.384c.213.207.42.42.642.642s.471.45.753.711c-.009.039-.033.177-.063.345-.288-.2-.555-.386-.809-.56Zm29.73-.855a2.154,2.154,0,0,1,.477-.531,1.084,1.084,0,0,1,.66-.261,2.446,2.446,0,0,1,.666.066,2.008,2.008,0,0,1,.558.21c.06.036.018.174-.051.345s-.174.354-.231.5l-.228.006c-.21.087-.423.174-.642.261-.111.048-.225.09-.345.132l-.366.129c-.137-.239-.305-.522-.5-.856Zm-1.473-.033c.06-.135.129-.273.189-.411.087.018.177.039.264.051-.1.129-.2.255-.312.381h-.018a.358.358,0,0,1-.122-.02ZM12.024,52.617c-.036-.018-.069-.036-.1-.054a1.826,1.826,0,0,1-.4-.159,2.121,2.121,0,0,1-.315-.186,2.436,2.436,0,0,1-.279-.243c-.159-.162-.309-.33-.465-.513-.078-.09-.162-.183-.243-.285s-.168-.21-.255-.321c.183-.228.345-.435.552-.7.168.144.333.285.495.42s.324.264.471.4a3.451,3.451,0,0,1,.4.444c.06.081.114.162.165.246a2.151,2.151,0,0,1,.138.273.7.7,0,0,1,.081.531l.129.114c.141.12.285.246.435.375C12.492,52.831,12.231,52.719,12.024,52.617Zm37.774.24a.382.382,0,0,1-.228-.081.237.237,0,0,1-.048-.195,2.691,2.691,0,0,1,.069-.366c.081-.351.225-.714.333-1.071-.168-.033-.306-.057-.51-.1.1-.138.186-.27.279-.4.045-.066.087-.129.126-.2l.126-.2c.4-.039.744-.075,1.212-.132.057-.414.1-.777.135-1.134.021-.186.039-.372.057-.555l.033-.546c.126-.279.231-.564.381-.831a5.54,5.54,0,0,1,.615-1.038,1.237,1.237,0,0,1,.873-.552.514.514,0,0,1,.543.516c.045.345.1.69.126,1.053a4.024,4.024,0,0,1-.075,1.134,2.415,2.415,0,0,1-.09.318,1.736,1.736,0,0,1-.135.315c-.21.4-.426.8-.657,1.2s-.48.786-.735,1.179c-.126.183-.333.453-.48.5a2.236,2.236,0,0,0-.444.213,2.331,2.331,0,0,0-.2.138c-.066.048-.129.1-.189.147a6.591,6.591,0,0,0-.672.687h-.192a1.708,1.708,0,0,1-.256,0Zm-2.508-.444a3.978,3.978,0,0,1,.48-.57c-.066-.084-.123-.159-.234-.306.453-.117.813-.21,1.167-.312l.036.12c-.132.117-.264.231-.519.45.354.084.669.15,1.005.216-.075.084-.141.2-.2.219-.243.075-.48.126-.72.2a3,3,0,0,0-.357.126,2.61,2.61,0,0,0-.381.18.332.332,0,0,1-.159.051c-.158,0-.2-.2-.118-.374Zm-34.738-.249-.2-.147-.186-.156.174-.114c.057.051.111.108.171.162l.174.156.354.315-.1.075Zm-2.964-2.13c-.084-.063-.1-.246-.18-.459a2.09,2.09,0,0,1,.438.207c.054.045.108.261.072.276a.409.409,0,0,1-.152.028.289.289,0,0,1-.178-.052ZM8.2,49.011c-.069-.234-.126-.477-.189-.711l.285.159c.018.111.033.222.051.33l.06.321Zm43.174-1.134a.006.006,0,0,1,.006-.006v.021a.028.028,0,0,1,0-.015Zm4.131-1.986a2.216,2.216,0,0,1,.816-.606,2.62,2.62,0,0,1-.357.993,1.265,1.265,0,0,1-.288.291,2.593,2.593,0,0,1-.435.246,2.055,2.055,0,0,1,.266-.924Zm-1.263-.264c.1-.1.207-.192.312-.279.006-.006.063.072.057.081-.09.117-.186.228-.282.342Zm2.037-1.966a3.075,3.075,0,0,1-.036-.753,3.693,3.693,0,0,1,.054-.4c.009-.069.024-.135.039-.2s.03-.138.048-.2a3.429,3.429,0,0,1,.285-.783,1.175,1.175,0,0,1,.564,1.176,1.3,1.3,0,0,1-.018.21,1.736,1.736,0,0,1-.042.21,3.3,3.3,0,0,1-.147.441,3.906,3.906,0,0,1-.225.45,2.433,2.433,0,0,1-.144.222c-.051.075-.108.144-.165.216a1.445,1.445,0,0,1-.211-.588Zm-54.4-8.037c-.15-.489-.384-1.008-.09-1.4v-.03l.014.017a.1.1,0,0,1-.014-.021c0-.006,0-.009,0-.015-.072-.225-.144-.456-.246-.774.336.4.339.4.246.774a.169.169,0,0,0,.012.036.029.029,0,0,0-.011.014c.069.47.156.94.234,1.408Zm56.953-2.187a.815.815,0,0,1,.159-.207c.108-.093.231-.093.381.051a.826.826,0,0,1-.237.4.954.954,0,0,1-.477.072,2.943,2.943,0,0,1,.173-.315ZM58.2,32.93l.132-.18.213.4-.1.144ZM1.461,30.972c.1.258.183.444.237.6a1.112,1.112,0,0,1,.09.36c0,.2-.108.351-.327.666C1.455,32.109,1.431,31.626,1.461,30.972Zm57.326-2.763a1.306,1.306,0,0,0-.4-.087c.06-.084.111-.156.159-.222s.081-.12.117-.168a1.212,1.212,0,0,1,.171-.2c.1-.084.195-.084.381-.081-.012.108-.024.21-.033.312-.006.048-.012.1-.015.144s-.015.1-.021.144c-.027.183-.054.36-.078.534a.2.2,0,0,1-.1.037C58.82,28.618,58.883,28.265,58.787,28.209ZM.9,28.2a16.992,16.992,0,0,1,.189-1.914,9.443,9.443,0,0,1,.21-.927c.042-.153.087-.3.138-.453a4.325,4.325,0,0,1,.18-.438c.417-.927.486-.927.663-.144-.072.2-.138.4-.207.588s-.117.384-.174.57-.111.372-.168.555c-.027.09-.057.18-.084.27s-.048.183-.072.27c-.084.3-.177.588-.27.879s-.168.585-.249.879ZM0,27.732c0-.093,0-.186.006-.276s.009-.177.015-.264c.018-.348.042-.675.081-1l.021-.162.03-.159.06-.318q.063-.315.117-.63c.021-.1.033-.213.051-.318s.036-.21.048-.315a4.568,4.568,0,0,0,.039-.636.992.992,0,0,1,.093-.336c.054-.129.126-.264.177-.381.084-.186.165-.369.249-.549s.165-.363.258-.54c.183-.354.363-.711.534-1.077A7.383,7.383,0,0,0,2.124,19.7a1.982,1.982,0,0,1,0,.975c-.021.087-.048.174-.075.258a2.023,2.023,0,0,1-.09.255,2.126,2.126,0,0,1-.264.468,2.88,2.88,0,0,0-.606,1.551,3.223,3.223,0,0,1-.171.588,5.839,5.839,0,0,0-.213.636c-.081.315-.123.639-.174.96l-.069.486c-.009.081-.024.159-.033.24l-.024.243a7.365,7.365,0,0,1-.129.957c-.027.123-.057.246-.1.4s-.1.348-.177.6c0-.2.007-.4.007-.585Zm58.087-.267v-.171l.309.081-.006.123ZM.8,26.361c.006-.081.009-.165.015-.246l.027-.243.114-.03c-.024.318-.021.639-.027.96l-.159.051Zm2.7.18-.621.021C3.2,26.091,3.36,26.172,3.5,26.541Zm-1.176-.525c.036-.192.075-.381.117-.6.021-.111.042-.225.069-.348s.063-.255.1-.4V25.4a4.264,4.264,0,0,1-.138.654ZM3.279,24.5a1.978,1.978,0,0,1,.207-.393c.039.2.1.321.069.4a.4.4,0,0,1-.2.195h0A.314.314,0,0,1,3.279,24.5Zm-.9-2.418a1.834,1.834,0,0,1-.006-.36,2.193,2.193,0,0,1,.072-.369c.036-.138.078-.294.132-.474.153.141.246.225.375.345-.081.219-.159.426-.243.648-.042.114-.084.228-.132.351-.021.063-.045.126-.069.189s-.045.135-.069.207c-.033-.239-.045-.4-.06-.539Zm1.263-.8c.045-.153.252-.246.381-.366l.114.162c-.033.117-.063.237-.1.363s-.069.252-.1.4c-.22-.077-.415-.191-.3-.56Zm-.954-1.134a.975.975,0,0,1-.009-.432c.03-.186.078-.4.1-.606.225-.057.36-.09.555-.135.075-.378.168-.717.285-1.161.1.069.273.075.255.18-.159.831.1,1,.744.753-.084.1-.156.192-.225.273s-.117.156-.168.222l-.261.348c.159.033.321.066.543.114-.21.324-.366.546-.615.987,0-.12.006-.225.009-.327V20.22c0-.044.006-.09.009-.132.015-.174.027-.327.036-.48-.15.084-.3.165-.5.273-.027.138-.039.27-.057.414s-.036.3-.057.486c-.257-.229-.509-.34-.644-.634Zm3.093.063.1-.273c.033-.09.063-.18.1-.27l.1.042c-.048.084-.087.168-.129.252l-.129.258Zm.831-1.284c-.045,0-.09.009-.132.009a.184.184,0,0,1-.174-.093.654.654,0,0,1-.033-.4c.129.06.336-.075.492-.09s.252.093.186.626A.422.422,0,0,0,6.612,18.927Zm.111-1.413a4.338,4.338,0,0,1,.3-.342c-.06.117-.126.24-.2.375-.072.159-.153.336-.255.549a.9.9,0,0,1,.15-.583Zm.33-.393v.021c-.009.009-.015.018-.024.027a.317.317,0,0,1,.024-.049ZM4.995,16.26a.713.713,0,0,1,.015-.312.737.737,0,0,1,.141-.243,2.212,2.212,0,0,1,.516-.39,2.748,2.748,0,0,1,.018.558.721.721,0,0,1-.084.24.972.972,0,0,1-.2.222.263.263,0,0,1-.161.046c-.115,0-.231-.048-.245-.122ZM52.288,13a1.214,1.214,0,0,1-.3-.126.535.535,0,0,1-.279-.4c-.018-.12.1-.3.2-.285a.763.763,0,0,1,.5.282,1.145,1.145,0,0,1,.168.27,2.389,2.389,0,0,1,.111.345A2.825,2.825,0,0,1,52.288,13ZM19.048,7.544l.213-.132c.138-.087.276-.171.438-.276-.111.273-.159.408-.27.477a1.632,1.632,0,0,1-.618.093C18.9,7.646,18.972,7.592,19.048,7.544ZM14.28,5.267c.117-.09.255-.171.369-.267a.75.75,0,0,0,.246-.315c-.144.072-.273.141-.4.207l-.183.1c-.062.033-.12.069-.177.1l-.657.384a.894.894,0,0,1,.312-.423,3.985,3.985,0,0,1,.4-.255c.186-.1.432-.222.756-.384a2.139,2.139,0,0,1,.618-.24,6.229,6.229,0,0,1,.957-.018c-.135.207-.273.417-.405.624l.135-.018c-.024.027-.078.075-.078.075a1.275,1.275,0,0,0-.552.1.9.9,0,0,1-.111.1,1.229,1.229,0,0,1-.585.261c-.144.084-.288.165-.429.243a2.024,2.024,0,0,1-.546.225C13.833,5.6,14.031,5.441,14.28,5.267ZM42.841,4.214c-.186-.069-.378-.294-.738-.687a3.718,3.718,0,0,1,.417.012,1.556,1.556,0,0,1,.366.078,1.22,1.22,0,0,1,.594.432,1.12,1.12,0,0,1-.5.192.379.379,0,0,1-.139-.027ZM17.982,3.749a.938.938,0,0,1,.2-.255,1.142,1.142,0,0,1,.279.036,1.838,1.838,0,0,1-.288.267.053.053,0,0,1-.027,0C18.084,3.8,17.975,3.766,17.982,3.749Zm1-.564q.189-.077.378-.147c.126-.047.259-.1.39-.144l.057.072-.189.063-.189.069-.375.138a.754.754,0,0,1-.123.015c.017-.021.032-.042.05-.066ZM41.2,2.764h0s-.009,0-.012-.006a.1.1,0,0,0,.027,0,.02.02,0,0,0-.007.007l.451.248c-.33.054-.576.1-.948.165C40.917,3,41.064,2.883,41.2,2.764Zm-.928-.1-.072-.28a.939.939,0,0,1,.528.075,1.537,1.537,0,0,1,.246.132c.075.051.15.108.222.162-.308-.042-.62-.06-.92-.087ZM24.094,2.147l.4-.141.045.1-.4.126Zm15.948-.366.195.129-.27.12Z" fill="#212121" opacity="0.9"/>
    </g>
    <g transform="matrix(1, 0, 0, 1, 274, 0)" filter="url(#Path_22830)">
      <path id="Path_22830-2" data-name="Path 22830" d="M24.12,17.357A1.473,1.473,0,0,1,25.809,19q0,2.045-4.9,5.033a18.214,18.214,0,0,1-9.478,2.989A11.861,11.861,0,0,1,3.986,24.38q-3.4-2.645-3.4-7.711,0-5.156,3.556-11.445A32.817,32.817,0,0,1,12.953-5.021q5.256-3.956,10.256-3.956A6.427,6.427,0,0,1,27.964-7.2a5.694,5.694,0,0,1,1.778,4.156,12.127,12.127,0,0,1-.4,3.7,3.8,3.8,0,0,1-1.711,1.922,4.453,4.453,0,0,1-2.133.8,2.043,2.043,0,0,1-1.467-.6,2.149,2.149,0,0,1-.622-1.622A8.423,8.423,0,0,1,23.787-.91a9.249,9.249,0,0,0,.356-2.267q0-1.533-1.044-1.533-3.2,0-7.178,3.422a30.983,30.983,0,0,0-6.811,8.5Q6.275,12.291,6.275,16.18a6.556,6.556,0,0,0,1.489,4.356,5.359,5.359,0,0,0,4.356,1.778,13.288,13.288,0,0,0,4.256-.911,19.127,19.127,0,0,0,4.745-2.467,7.17,7.17,0,0,1,3-1.579Z" transform="translate(14.08 20.31)" fill="#fff"/>
    </g>
  </g>
</svg>
